HIERARCHY
ROOT Hips
{
	OFFSET 0.000000 83.214638 0.000000
	CHANNELS 6 Xposition Yposition Zposition Xrotation Yrotation Zrotation
	JOINT Pelvis
	{
		OFFSET 0.000000 0.000000 0.000000
		CHANNELS 3 Xrotation Yrotation Zrotation
		JOINT LeftUpLeg
		{
			OFFSET 8.479700 -4.795502 -0.379100
			CHANNELS 3 Xrotation Yrotation Zrotation
			JOINT LeftLeg
			{
				OFFSET 0.024144 -32.555107 0.112900
				CHANNELS 3 Xrotation Yrotation Zrotation
				JOINT LeftFoot
				{
					OFFSET -0.024144 -32.638630 -3.012600
					CHANNELS 3 Xrotation Yrotation Zrotation
					JOINT LeftToeBase
					{
						OFFSET 0.970200 -13.225400 11.864200
						CHANNELS 3 Xrotation Yrotation Zrotation
						End Site
						{
							OFFSET 0.000000 12.319262 0.000000
						}
					}
					JOINT LFootTongue
					{
						OFFSET 1.142400 -1.059800 6.665200
						CHANNELS 3 Xrotation Yrotation Zrotation
						End Site
						{
							OFFSET 0.000000 12.319262 0.000000
						}
					}
				}
				JOINT LeftPantLeg
				{
					OFFSET 0.918482 -16.533964 -2.284700
					CHANNELS 3 Xrotation Yrotation Zrotation
					End Site
					{
						OFFSET 0.350399 24.744368 0.000000
					}
				}
			}
		}
		JOINT RightUpLeg
		{
			OFFSET -8.479700 -4.795502 -0.379100
			CHANNELS 3 Xrotation Yrotation Zrotation
			JOINT RightLeg
			{
				OFFSET -0.023144 -32.555092 0.112900
				CHANNELS 3 Xrotation Yrotation Zrotation
				JOINT RightFoot
				{
					OFFSET 0.023144 -32.638641 -3.012700
					CHANNELS 3 Xrotation Yrotation Zrotation
					JOINT RightToeBase
					{
						OFFSET -0.970200 -13.225400 11.864200
						CHANNELS 3 Xrotation Yrotation Zrotation
						End Site
						{
							OFFSET 0.000000 12.319244 0.000000
						}
					}
					JOINT RFootTongue
					{
						OFFSET -1.142200 -1.059800 6.665200
						CHANNELS 3 Xrotation Yrotation Zrotation
						End Site
						{
							OFFSET 0.000000 12.319243 0.000000
						}
					}
				}
				JOINT RightPantLeg
				{
					OFFSET -0.919482 -16.533978 -2.284800
					CHANNELS 3 Xrotation Yrotation Zrotation
					End Site
					{
						OFFSET -0.350400 24.744419 0.000000
					}
				}
			}
		}
	}
	JOINT Spine
	{
		OFFSET 0.000000 7.722000 1.166200
		CHANNELS 3 Xrotation Yrotation Zrotation
		JOINT Spine1
		{
			OFFSET 0.000000 12.024101 0.248800
			CHANNELS 3 Xrotation Yrotation Zrotation
			JOINT Spine2
			{
				OFFSET 0.000000 11.502998 -0.491200
				CHANNELS 3 Xrotation Yrotation Zrotation
				JOINT Neck
				{
					OFFSET 0.000000 18.430702 -3.123100
					CHANNELS 3 Xrotation Yrotation Zrotation
					JOINT Head
					{
						OFFSET 0.000000 9.051102 1.034000
						CHANNELS 3 Xrotation Yrotation Zrotation
						JOINT HairB
						{
							OFFSET 0.208400 24.786102 24.822300
							CHANNELS 3 Xrotation Yrotation Zrotation
							End Site
							{
								OFFSET 0.000000 32.263779 0.000000
							}
						}
						JOINT HairA
						{
							OFFSET -7.081100 24.428299 23.196600
							CHANNELS 3 Xrotation Yrotation Zrotation
							End Site
							{
								OFFSET 0.000000 32.263779 0.000000
							}
						}
						JOINT Hat
						{
							OFFSET 16.728800 15.048294 -15.439601
							CHANNELS 3 Xrotation Yrotation Zrotation
							End Site
							{
								OFFSET 0.000000 32.263779 0.000000
							}
						}
					}
				}
				JOINT LeftShoulder
				{
					OFFSET 6.197800 13.665199 -4.064700
					CHANNELS 3 Xrotation Yrotation Zrotation
					JOINT LeftArm
					{
						OFFSET 7.778100 -0.187103 -1.709300
						CHANNELS 3 Xrotation Yrotation Zrotation
						JOINT LeftForeArm
						{
							OFFSET 22.049376 0.000000 0.000000
							CHANNELS 3 Xrotation Yrotation Zrotation
							JOINT LeftHand
							{
								OFFSET 23.009392 0.000000 0.000000
								CHANNELS 3 Xrotation Yrotation Zrotation
								JOINT LeftHandThumb1
								{
									OFFSET 3.507191 -2.063065 3.133727
									CHANNELS 3 Xrotation Yrotation Zrotation
									JOINT LeftHandThumb2
									{
										OFFSET 3.101337 -1.790558 1.790558
										CHANNELS 3 Xrotation Yrotation Zrotation
										JOINT LeftHandThumb3
										{
											OFFSET 3.058640 -1.765907 1.765906
											CHANNELS 3 Xrotation Yrotation Zrotation
											End Site
											{
												OFFSET -0.415260 3.926476 -0.049563
											}
										}
									}
								}
								JOINT LeftHandIndex1
								{
									OFFSET 11.334419 -0.901459 3.706815
									CHANNELS 3 Xrotation Yrotation Zrotation
									JOINT LeftHandIndex2
									{
										OFFSET 3.283112 0.000000 0.000000
										CHANNELS 3 Xrotation Yrotation Zrotation
										JOINT LeftHandIndex3
										{
											OFFSET 3.323853 0.000000 0.000000
											CHANNELS 3 Xrotation Yrotation Zrotation
											End Site
											{
												OFFSET -1.135597 3.097809 0.402452
											}
										}
									}
								}
								JOINT LeftHandMiddle1
								{
									OFFSET 11.335861 0.000000 0.000000
									CHANNELS 3 Xrotation Yrotation Zrotation
									JOINT LeftHandMiddle2
									{
										OFFSET 3.410492 0.000000 0.000000
										CHANNELS 3 Xrotation Yrotation Zrotation
										JOINT LeftHandMiddle3
										{
											OFFSET 3.312172 0.000000 0.000000
											CHANNELS 3 Xrotation Yrotation Zrotation
											End Site
											{
												OFFSET -1.150200 3.080154 0.400270
											}
										}
									}
								}
								JOINT LeftHandRing1
								{
									OFFSET 11.514786 -0.013176 -3.003090
									CHANNELS 3 Xrotation Yrotation Zrotation
									JOINT LeftHandRing2
									{
										OFFSET 3.053307 0.000000 0.000000
										CHANNELS 3 Xrotation Yrotation Zrotation
										JOINT LeftHandRing3
										{
											OFFSET 3.295807 0.000000 0.000000
											CHANNELS 3 Xrotation Yrotation Zrotation
											End Site
											{
												OFFSET -1.281006 3.013344 0.375733
											}
										}
									}
								}
								JOINT LeftHandPinky1
								{
									OFFSET 10.518692 -0.960396 -5.730441
									CHANNELS 3 Xrotation Yrotation Zrotation
									JOINT LeftHandPinky2
									{
										OFFSET 2.861649 0.000000 0.000000
										CHANNELS 3 Xrotation Yrotation Zrotation
										JOINT LeftHandPinky3
										{
											OFFSET 2.863380 0.000000 0.000000
											CHANNELS 3 Xrotation Yrotation Zrotation
											End Site
											{
												OFFSET -0.843597 2.711159 0.369971
											}
										}
									}
								}
							}
							JOINT LSleeve
							{
								OFFSET 6.676277 -0.344902 -1.011730
								CHANNELS 3 Xrotation Yrotation Zrotation
								End Site
								{
									OFFSET 0.000000 14.885353 0.000000
								}
							}
						}
					}
				}
				JOINT RightShoulder
				{
					OFFSET -6.197800 13.665199 -4.064700
					CHANNELS 3 Xrotation Yrotation Zrotation
					JOINT RightArm
					{
						OFFSET -7.778100 -0.187103 -1.709300
						CHANNELS 3 Xrotation Yrotation Zrotation
						JOINT RightForeArm
						{
							OFFSET -22.049376 0.000000 0.000000
							CHANNELS 3 Xrotation Yrotation Zrotation
							JOINT RightHand
							{
								OFFSET -23.009392 0.000000 0.000000
								CHANNELS 3 Xrotation Yrotation Zrotation
								JOINT RightHandThumb1
								{
									OFFSET -3.507191 -2.063065 3.133727
									CHANNELS 3 Xrotation Yrotation Zrotation
									JOINT RightHandThumb2
									{
										OFFSET -3.101337 -1.790558 1.790558
										CHANNELS 3 Xrotation Yrotation Zrotation
										JOINT RightHandThumb3
										{
											OFFSET -3.058640 -1.765907 1.765906
											CHANNELS 3 Xrotation Yrotation Zrotation
											End Site
											{
												OFFSET 0.415260 3.926476 -0.049563
											}
										}
									}
								}
								JOINT RightHandIndex1
								{
									OFFSET -11.334419 -0.901459 3.706815
									CHANNELS 3 Xrotation Yrotation Zrotation
									JOINT RightHandIndex2
									{
										OFFSET -3.283112 0.000000 0.000000
										CHANNELS 3 Xrotation Yrotation Zrotation
										JOINT RightHandIndex3
										{
											OFFSET -3.323853 0.000000 0.000000
											CHANNELS 3 Xrotation Yrotation Zrotation
											End Site
											{
												OFFSET 1.135597 3.097809 0.402452
											}
										}
									}
								}
								JOINT RightHandMiddle1
								{
									OFFSET -11.335861 0.000000 0.000000
									CHANNELS 3 Xrotation Yrotation Zrotation
									JOINT RightHandMiddle2
									{
										OFFSET -3.410492 0.000000 0.000000
										CHANNELS 3 Xrotation Yrotation Zrotation
										JOINT RightHandMiddle3
										{
											OFFSET -3.312172 0.000000 0.000000
											CHANNELS 3 Xrotation Yrotation Zrotation
											End Site
											{
												OFFSET 1.150200 3.080154 0.400270
											}
										}
									}
								}
								JOINT RightHandRing1
								{
									OFFSET -11.514786 -0.013176 -3.003090
									CHANNELS 3 Xrotation Yrotation Zrotation
									JOINT RightHandRing2
									{
										OFFSET -3.053307 0.000000 0.000000
										CHANNELS 3 Xrotation Yrotation Zrotation
										JOINT RightHandRing3
										{
											OFFSET -3.295807 0.000000 0.000000
											CHANNELS 3 Xrotation Yrotation Zrotation
											End Site
											{
												OFFSET 1.281006 3.013344 0.375733
											}
										}
									}
								}
								JOINT RightHandPinky1
								{
									OFFSET -10.518692 -0.960396 -5.730441
									CHANNELS 3 Xrotation Yrotation Zrotation
									JOINT RightHandPinky2
									{
										OFFSET -2.861649 0.000000 0.000000
										CHANNELS 3 Xrotation Yrotation Zrotation
										JOINT RightHandPinky3
										{
											OFFSET -2.863380 0.000000 0.000000
											CHANNELS 3 Xrotation Yrotation Zrotation
											End Site
											{
												OFFSET 0.843597 2.711159 0.369971
											}
										}
									}
								}
							}
							JOINT RSleeve
							{
								OFFSET -6.676277 -0.344902 -1.011730
								CHANNELS 3 Xrotation Yrotation Zrotation
								End Site
								{
									OFFSET 0.000000 14.885353 0.000000
								}
							}
						}
					}
				}
				JOINT Backpack
				{
					OFFSET 0.000000 -2.471497 36.677502
					CHANNELS 3 Xrotation Yrotation Zrotation
					End Site
					{
						OFFSET 0.000000 20.427315 0.000000
					}
				}
				JOINT Hood
				{
					OFFSET 0.000000 18.754097 -10.431000
					CHANNELS 3 Xrotation Yrotation Zrotation
					JOINT Hood1
					{
						OFFSET 0.000000 -5.011002 -7.685901
						CHANNELS 3 Xrotation Yrotation Zrotation
						End Site
						{
							OFFSET 0.000000 9.175140 0.000000
						}
					}
				}
				JOINT LHoodieString
				{
					OFFSET 5.250500 16.397697 3.089900
					CHANNELS 3 Xrotation Yrotation Zrotation
					JOINT LHoodieString1
					{
						OFFSET 0.257700 -6.364304 3.694600
						CHANNELS 3 Xrotation Yrotation Zrotation
						JOINT LHoodieString2
						{
							OFFSET 0.000000 -9.643799 2.679100
							CHANNELS 3 Xrotation Yrotation Zrotation
							End Site
							{
								OFFSET 0.000000 10.009018 0.000000
							}
						}
					}
				}
				JOINT RHoodieString
				{
					OFFSET -5.250500 16.397697 3.089900
					CHANNELS 3 Xrotation Yrotation Zrotation
					JOINT RHoodieString1
					{
						OFFSET -0.257700 -6.364304 3.694600
						CHANNELS 3 Xrotation Yrotation Zrotation
						JOINT RHoodieString2
						{
							OFFSET 0.000000 -9.643799 2.679100
							CHANNELS 3 Xrotation Yrotation Zrotation
							End Site
							{
								OFFSET 0.000000 10.009018 0.000000
							}
						}
					}
				}
			}
			JOINT LBackpack_Strap
			{
				OFFSET 15.223200 -7.719803 -6.610900
				CHANNELS 3 Xrotation Yrotation Zrotation
				End Site
				{
					OFFSET 0.000000 16.040596 0.000000
				}
			}
			JOINT RBackpack_Strap
			{
				OFFSET -15.223000 -7.719803 -6.610900
				CHANNELS 3 Xrotation Yrotation Zrotation
				End Site
				{
					OFFSET 0.000000 16.040596 0.000000
				}
			}
		}
	}
	JOINT BoyFacialAnim_Joint
	{
		OFFSET 1.000000 -82.208099 -1.550900
		CHANNELS 3 Xrotation Yrotation Zrotation
		End Site
		{
			OFFSET 0.000000 30.012791 0.000000
		}
	}
}
MOTION
Frames: 4
Frame Time: 0.033333
-0.268037 75.573166 0.588917 3.454901 -0.004655 -3.030428 0.000000 0.000000 0.000000 -17.366053 2.565437 23.946223 31.263869 8.095722 7.640990 -12.406268 3.879130 -23.098366 0.000000 0.000000 0.000000 0.000000 0.000000 -0.000000 0.000001 -0.000003 0.000002 -21.330406 -8.593439 -17.848440 28.226597 -0.524797 -9.313374 -8.270284 -2.779768 22.894886 0.000000 -0.000003 -0.000000 0.000000 -0.000003 -0.000000 -0.000001 -0.000000 -0.000001 0.076511 -1.355987 -1.490691 0.845698 -1.930456 -1.556634 0.874163 -1.934195 -1.498417 3.239893 -2.972521 -0.230805 10.375423 8.426980 1.820858 -0.000001 0.000000 0.000000 -0.000001 0.000000 0.000000 -0.000001 0.000000 0.000000 0.650682 -3.320859 -13.539964 -18.923915 -50.100828 -44.158484 0.003134 -92.563434 0.003255 -39.943732 19.847603 31.502636 16.529925 9.058316 -17.957590 19.702406 18.669687 -0.642059 -0.000003 -0.000001 -0.000002 5.495038 6.740808 -78.351381 5.526023 6.747082 -78.615197 -0.000001 0.000000 -0.000002 5.487418 6.739216 -78.286453 5.559135 6.753600 -78.897264 0.000001 -0.000000 0.000000 5.507339 6.743272 -78.456177 5.548440 6.751511 -78.806436 -0.000000 -0.000001 0.000001 9.531549 7.548083 -78.603347 5.535655 2.662461 -78.732642 -0.000000 0.000001 -0.000000 0.000001 0.000003 0.000000 0.221084 0.680143 -2.009832 -93.476036 26.273465 74.760566 0.000094 68.301776 -0.000105 -51.738458 -15.734738 -18.169276 19.351891 1.650308 25.056820 29.764807 -26.872010 -8.581524 -0.000004 0.000002 0.000001 5.163801 -6.716283 75.083641 5.187745 -6.722569 75.288260 0.000001 0.000000 0.000005 5.227119 -6.732720 75.624428 5.272562 -6.744104 76.011761 0.000001 -0.000001 0.000005 5.316995 -6.754950 76.389778 5.352701 -6.763442 76.693196 -0.000001 0.000003 0.000004 5.396752 -6.773614 77.067012 5.396790 -6.773648 77.067087 -0.000000 0.000001 0.000000 0.000001 0.000000 -0.000003 -0.000000 0.000000 -0.000000 -0.000000 0.000000 -0.000000 -0.000000 0.000000 -0.000000 -0.000000 0.000000 -0.000000 -0.000000 0.000000 -0.000000 -0.000000 -0.000000 -0.000001 -0.000000 0.000000 -0.000000 -0.000000 0.000000 -0.000000 -0.000000 -0.000000 -0.000001 -0.000000 0.000000 0.000000 -0.000000 0.000000 0.000000 0.000000 0.000000 0.000000 
-0.272570 75.577011 0.552245 3.662274 0.039938 -2.934570 0.000000 -0.000000 0.000000 -17.875724 3.044501 24.118641 31.270249 7.896432 7.464781 -12.440519 3.343305 -22.957118 0.000000 0.000000 -0.000000 0.000000 0.000000 -0.000000 -0.000002 0.000002 0.000003 -21.523366 -8.362100 -17.699419 28.262995 -0.695154 -9.623281 -8.283107 -2.848213 22.993571 -0.000000 -0.000000 0.000000 -0.000000 -0.000000 0.000000 0.000002 -0.000000 -0.000001 0.332681 -1.465946 -1.563700 1.123407 -2.003903 -1.631782 1.155601 -2.002433 -1.562605 3.336394 -2.879001 -0.263852 9.591510 8.713286 1.463162 0.000002 0.000000 -0.000000 0.000002 0.000000 -0.000000 0.000002 0.000000 -0.000000 0.520936 -3.445444 -13.426386 -19.146871 -50.216599 -43.312371 -0.196846 -93.178014 -0.196278 -40.028296 20.199989 31.394886 16.529924 9.058316 -17.957594 19.702410 18.669685 -0.642055 -0.000002 -0.000002 -0.000001 5.495037 6.740807 -78.351381 5.526023 6.747083 -78.615204 -0.000000 -0.000001 -0.000000 5.487418 6.739217 -78.286453 5.559134 6.753600 -78.897264 0.000000 -0.000001 -0.000002 5.507336 6.743272 -78.456177 5.548442 6.751510 -78.806443 -0.000001 -0.000000 -0.000000 9.531549 7.548083 -78.603347 5.535655 2.662459 -78.732642 -0.000001 -0.000000 0.000001 -0.000000 -0.000001 0.000003 0.089420 0.647858 -2.657052 -93.793278 26.573679 73.766275 0.000110 68.969024 -0.000123 -52.499699 -15.156615 -18.242730 19.351891 1.650321 25.056812 29.764803 -26.872015 -8.581522 -0.000000 0.000002 0.000003 5.163799 -6.716277 75.083641 5.187746 -6.722569 75.288260 -0.000000 -0.000001 0.000005 5.227116 -6.732716 75.624428 5.272557 -6.744103 76.011755 -0.000001 0.000003 0.000002 5.316992 -6.754946 76.389778 5.352705 -6.763440 76.693196 -0.000001 -0.000001 0.000000 5.396752 -6.773607 77.067012 5.396788 -6.773647 77.067087 0.000002 0.000003 -0.000003 -0.000001 -0.000002 -0.000000 0.000000 -0.000000 -0.000000 0.000000 -0.000000 -0.000000 0.000000 -0.000000 -0.000000 0.000000 -0.000000 -0.000000 0.000000 -0.000000 -0.000000 0.000000 -0.000000 -0.000000 0.000000 -0.000000 -0.000000 0.000000 -0.000000 -0.000000 0.000000 -0.000000 -0.000000 0.000000 -0.000000 -0.000000 0.000000 -0.000000 -0.000000 0.000000 -0.000000 0.000000 
-0.293561 75.575645 0.495077 4.006360 0.036042 -2.912580 0.000000 -0.000000 -0.000000 -18.389381 3.112806 24.392472 31.406050 7.626326 6.999256 -12.469966 3.233032 -22.697294 -0.000000 -0.000000 0.000000 -0.000000 -0.000000 -0.000000 0.000001 0.000000 -0.000000 -22.047497 -8.476786 -17.555130 28.374353 -0.645557 -9.956534 -8.321963 -2.736785 22.963870 -0.000000 -0.000001 -0.000000 -0.000000 -0.000001 -0.000000 -0.000000 -0.000000 -0.000001 0.682836 -1.620662 -1.624522 1.494635 -2.094896 -1.691278 1.529024 -2.085817 -1.609519 3.643018 -2.691630 -0.320088 8.159681 9.289239 0.705600 0.000000 0.000000 0.000000 0.000000 0.000000 0.000000 0.000000 0.000000 0.000000 0.511866 -3.421144 -13.169920 -19.727791 -50.571195 -42.272140 0.009397 -94.022356 0.009287 -40.447711 20.480894 31.343280 16.529924 9.058317 -17.957590 19.702411 18.669685 -0.642056 -0.000001 0.000001 0.000000 5.495037 6.740808 -78.351381 5.526024 6.747084 -78.615204 -0.000001 -0.000001 -0.000000 5.487418 6.739217 -78.286453 5.559133 6.753598 -78.897264 0.000001 0.000000 0.000000 5.507337 6.743271 -78.456177 5.548440 6.751508 -78.806436 0.000000 -0.000001 -0.000000 9.531549 7.548085 -78.603347 5.535657 2.662459 -78.732642 -0.000000 0.000000 -0.000000 -0.000000 -0.000001 0.000001 0.070055 0.482335 -3.550037 -94.644565 26.410979 72.711482 -0.000064 69.871995 0.000062 -53.431853 -14.770011 -18.306101 19.351893 1.650307 25.056820 29.764810 -26.872012 -8.581523 0.000002 0.000001 0.000001 5.163802 -6.716281 75.083641 5.187744 -6.722570 75.288267 -0.000001 -0.000003 0.000005 5.227119 -6.732718 75.624428 5.272560 -6.744103 76.011761 0.000002 0.000001 -0.000000 5.316994 -6.754953 76.389778 5.352704 -6.763440 76.693196 -0.000002 0.000000 0.000000 5.396753 -6.773617 77.067012 5.396786 -6.773645 77.067087 -0.000001 -0.000000 -0.000002 0.000001 -0.000003 -0.000002 0.000001 0.000000 -0.000000 0.000001 0.000000 -0.000000 0.000001 0.000000 -0.000000 0.000001 0.000000 -0.000000 0.000001 0.000000 0.000001 0.000000 0.000000 -0.000000 0.000001 0.000000 -0.000000 0.000001 0.000000 0.000001 0.000000 0.000000 -0.000000 0.000000 -0.000000 -0.000000 0.000000 -0.000000 -0.000000 0.000000 -0.000000 -0.000000 
-0.282413 75.532623 0.277974 4.617822 -0.198230 -2.995919 -0.000000 -0.000000 -0.000000 -19.602916 3.372647 24.978446 32.002715 7.286763 6.385249 -12.619732 2.951167 -22.333976 0.000000 -0.000002 -0.000000 0.000000 -0.000002 -0.000000 -0.000001 -0.000002 -0.000000 -23.342989 -8.871179 -17.466448 28.781751 -0.127582 -10.200112 -8.327890 -2.473240 22.637834 0.000000 -0.000000 0.000000 0.000000 -0.000000 0.000000 -0.000000 -0.000000 0.000001 1.213065 -1.823681 -1.679063 2.041275 -2.201758 -1.718554 2.075613 -2.180946 -1.622462 3.747113 -2.487442 -0.243879 5.899137 9.985415 0.187558 0.000002 0.000000 0.000000 0.000002 0.000000 0.000000 0.000002 0.000000 0.000000 0.434603 -3.421271 -12.909848 -20.943660 -50.842870 -41.104468 0.000355 -95.190885 0.000359 -41.045800 20.919109 31.295575 16.529922 9.058317 -17.957592 19.702413 18.669685 -0.642059 -0.000001 0.000000 0.000001 5.495039 6.740808 -78.351374 5.526025 6.747083 -78.615197 0.000000 0.000000 -0.000002 5.487418 6.739216 -78.286447 5.559133 6.753598 -78.897264 0.000000 -0.000001 0.000000 5.507338 6.743271 -78.456170 5.548440 6.751511 -78.806436 -0.000001 -0.000001 0.000001 9.531550 7.548086 -78.603347 5.535655 2.662458 -78.732642 -0.000000 -0.000000 0.000001 -0.000002 0.000001 0.000002 -0.034739 -0.105690 -4.506479 -96.396215 25.804142 72.070162 0.000098 70.647058 -0.000102 -54.527200 -14.656789 -17.806711 19.351890 1.650320 25.056817 29.764810 -26.872015 -8.581528 0.000002 0.000001 0.000001 5.163801 -6.716277 75.083641 5.187742 -6.722569 75.288253 -0.000000 0.000000 0.000002 5.227117 -6.732715 75.624428 5.272562 -6.744103 76.011761 0.000003 -0.000002 -0.000001 5.316992 -6.754946 76.389778 5.352703 -6.763442 76.693196 -0.000001 0.000001 0.000004 5.396752 -6.773615 77.067012 5.396786 -6.773646 77.067087 -0.000000 0.000000 -0.000001 -0.000001 -0.000002 0.000001 0.000001 0.000000 0.000000 0.000001 0.000000 0.000000 0.000001 0.000000 0.000000 0.000001 0.000000 0.000000 0.000001 0.000000 0.000000 -0.000000 -0.000000 -0.000001 0.000001 0.000000 0.000000 0.000001 0.000000 0.000000 -0.000000 -0.000000 -0.000001 0.000001 0.000000 -0.000000 0.000001 0.000000 -0.000000 -0.000000 -0.000000 -0.000000 
